<?xml version="1.0" encoding="UTF-8"?>
<!DOCTYPE svg PUBLIC "-//W3C//DTD SVG 1.1//EN" "http://www.w3.org/Graphics/SVG/1.1/DTD/svg11.dtd">
<!-- Creator: CorelDRAW 2019 (64 Bit) -->
<svg xmlns="http://www.w3.org/2000/svg" xml:space="preserve" width="115.062mm" height="30.7913mm" version="1.1" style="shape-rendering:geometricPrecision; text-rendering:geometricPrecision; image-rendering:optimizeQuality; fill-rule:evenodd; clip-rule:evenodd"
viewBox="0 0 10682.42 2858.69"
 xmlns:xlink="http://www.w3.org/1999/xlink"
 xmlns:xodm="http://www.corel.com/coreldraw/odm/2003">
 <defs>
  <style type="text/css">
   <![CDATA[
    .fil1 {fill:#28619D}
    .fil5 {fill:#2A5E94}
    .fil8 {fill:#2A5E94}
    .fil6 {fill:#2C5787}
    .fil7 {fill:#2C5787}
    .fil3 {fill:aqua}
    .fil4 {fill:#03CDFF}
    .fil2 {fill:#07B1DB}
    .fil0 {fill:white;fill-rule:nonzero}
   ]]>
  </style>
 </defs>
 <g id="Camada_x0020_1">
  <metadata id="CorelCorpID_0Corel-Layer"/>
  <path class="fil0" d="M2901.06 1226.22c-79.48,0 -153.09,-13.5 -220.86,-40.51 -67.76,-27 -126.61,-64.95 -176.54,-113.87 -49.93,-48.91 -88.65,-106.23 -116.16,-171.95 -27.52,-65.72 -41.27,-137.81 -41.27,-216.27 0,-78.46 13.75,-150.55 41.27,-216.28 27.51,-65.72 66.48,-123.04 116.92,-171.95 50.44,-48.91 109.28,-86.86 176.54,-113.87 67.25,-27 140.62,-40.51 220.1,-40.51 75.41,0 145.97,12.24 211.7,36.69 65.72,24.45 122.02,61.65 168.9,111.58l-48.92 50.44c-45.85,-44.84 -96.55,-77.19 -152.08,-97.06 -55.53,-19.87 -114.38,-29.8 -176.54,-29.8 -68.27,0 -131.69,11.72 -190.29,35.16 -58.59,23.43 -109.54,56.55 -152.84,99.35 -43.31,42.79 -76.94,92.72 -100.88,149.79 -23.94,57.06 -35.92,119.22 -35.92,186.47 0,67.25 11.98,129.41 35.92,186.47 23.94,57.06 57.57,106.99 100.88,149.79 43.3,42.8 94.25,75.92 152.84,99.35 58.59,23.43 122.02,35.15 190.29,35.15 62.16,0 121.01,-9.93 176.54,-29.8 55.54,-19.87 106.23,-52.73 152.08,-98.59l48.92 50.44c-46.88,49.93 -103.17,87.38 -168.9,112.35 -65.72,24.96 -136.29,37.44 -211.7,37.44z"/>
  <polygon id="1" class="fil0" points="3769.22,1218.58 3769.22,830.35 3787.57,880.79 3338.2,148.67 3423.8,148.67 3831.89,813.54 3789.1,813.54 4197.19,148.67 4278.2,148.67 3828.84,880.79 3847.18,830.35 3847.18,1218.58 "/>
  <path id="2" class="fil0" d="M4446.33 1218.58l0 -1069.92 446.31 0c115.14,0 205.32,23.43 270.54,70.31 65.21,46.87 97.82,114.63 97.82,203.28 0,58.08 -13.76,106.99 -41.27,146.73 -27.51,39.75 -65.47,69.55 -113.87,89.41 -48.41,19.88 -102.66,29.81 -162.78,29.81l27.51 -30.57c73.36,0 136.03,10.7 188,32.1 51.96,21.4 91.45,52.48 118.46,93.24 27,40.76 40.5,91.71 40.5,152.84 0,89.67 -32.61,159.21 -97.82,208.63 -65.21,49.42 -164.06,74.13 -296.52,74.13l-476.88 0zm77.95 -67.25l398.93 0c102.92,0 181.38,-17.57 235.39,-52.73 54.01,-35.15 81,-91.45 81,-168.89 0,-76.43 -27,-132.21 -81,-167.37 -54.01,-35.15 -132.47,-52.72 -235.39,-52.72l-408.09 0 0 -67.25 374.46 0c92.73,0 164.57,-17.83 215.51,-53.49 50.95,-35.67 76.43,-89.16 76.43,-160.49 0,-70.31 -25.48,-123.29 -76.43,-158.95 -50.94,-35.67 -122.78,-53.5 -215.51,-53.5l-365.3 0 0 935.42z"/>
  <path id="3" class="fil0" d="M5664.51 640.82l579.28 0 0 68.79 -579.28 0 0 -68.79zm9.16 507.45l660.29 0 0 70.31 -738.24 0 0 -1069.92 715.32 0 0 70.31 -637.37 0 0 929.3z"/>
  <path id="4" class="fil0" d="M6618.26 1218.58l0 -1069.92 383.65 0c89.67,0 166.6,14.26 230.79,42.79 64.2,28.53 113.62,69.55 148.26,123.04 34.65,53.49 51.97,118.46 51.97,194.88 0,74.38 -17.32,138.32 -51.97,191.82 -34.64,53.49 -84.06,94.76 -148.26,123.8 -64.19,29.04 -141.13,43.56 -230.79,43.56l-340.85 0 35.15 -36.68 0 386.7 -77.95 0zm742.83 0l-278.18 -388.23 88.65 0 278.18 388.23 -88.65 0zm-664.88 -382.11l-35.15 -36.68 340.85 0c115.14,0 202.51,-25.48 262.13,-76.43 59.61,-50.94 89.41,-122.27 89.41,-213.98 0,-92.73 -29.8,-164.31 -89.41,-214.75 -59.61,-50.44 -146.99,-75.66 -262.13,-75.66l-340.85 0 35.15 -38.21 0 655.71z"/>
  <path id="5" class="fil0" d="M7853.26 966.39l-10.7 -235.39 560.94 -582.33 223.16 0 -466.18 495.21 -110.05 120.75 -197.17 201.76zm-177.31 252.19l0 -1069.92 198.71 0 0 1069.92 -198.71 0zm745.89 0l-409.63 -487.58 131.45 -145.2 510.5 632.78 -232.32 0z"/>
  <path id="6" class="fil0" d="M8973.61 593.45l531.9 0 0 163.54 -531.9 0 0 -163.54zm15.29 458.53l603.73 0 0 166.6 -802.44 0 0 -1069.92 781.04 0 0 166.59 -582.33 0 0 736.72z"/>
  <polygon id="7" class="fil0" points="10064.93,1218.58 10064.93,795.2 10109.25,917.47 9644.6,148.67 9857.06,148.67 10230,767.69 10110.78,767.69 10486.79,148.67 10682.42,148.67 10217.77,917.47 10263.63,795.2 10263.63,1218.58 "/>
  <polygon class="fil0" points="3529.21,2062.05 3603.68,1687.9 3457.8,1687.9 3468.18,1634.8 3821.58,1634.8 3810.58,1687.9 3664.71,1687.9 3589.63,2062.05 "/>
  <path id="1" class="fil0" d="M4024.21 1735.5c28.48,0 52.29,5.7 71.41,17.09 19.13,11.4 32.46,27.98 39.98,49.74 7.53,21.77 8.24,47.92 2.14,78.43l-36.01 181.28 -58.6 0 36.01 -181.28c6.11,-29.29 3.26,-52.08 -8.54,-68.36 -11.8,-16.27 -32.96,-24.42 -63.48,-24.42 -31.33,0 -57.38,8.45 -78.13,25.34 -20.75,16.89 -34.58,42.83 -41.5,77.82l-34.18 170.9 -58.59 0 90.33 -452.89 58.59 0 -44.55 222.17 -13.42 -25.02c15.46,-24.42 35.09,-42.32 58.9,-53.72 23.8,-11.39 50.36,-17.09 79.65,-17.09z"/>
  <path id="2" class="fil0" d="M4364.8 2065.71c-31.74,0 -59.2,-5.79 -82.4,-17.39 -23.2,-11.6 -41.1,-27.87 -53.72,-48.83 -12.61,-20.95 -18.92,-45.67 -18.92,-74.15 0,-36.63 7.94,-69.18 23.8,-97.66 15.88,-28.48 37.54,-50.97 65.01,-67.45 27.46,-16.48 58.69,-24.72 93.69,-24.72 29.3,0 54.73,5.6 76.3,16.79 21.57,11.2 38.35,27.17 50.36,47.92 12,20.76 18,45.78 18,75.08 0,7.33 -0.4,14.74 -1.22,22.27 -0.82,7.53 -1.83,14.55 -3.05,21.06l-280.16 0 7.33 -42.73 244.76 0 -23.8 14.65c3.67,-22.78 2.03,-42.01 -4.88,-57.67 -6.92,-15.67 -17.8,-27.68 -32.65,-36.01 -14.85,-8.35 -32.65,-12.51 -53.41,-12.51 -24.41,0 -45.87,5.79 -64.39,17.4 -18.52,11.6 -32.87,27.67 -43.03,48.21 -10.18,20.55 -15.26,44.67 -15.26,72.33 0,29.3 8.45,51.98 25.33,68.05 16.89,16.07 42.62,24.11 77.22,24.11 20.34,0 39.26,-3.36 56.76,-10.07 17.5,-6.71 31.95,-15.76 43.34,-27.16l25.02 42.11c-15.46,15.06 -34.79,26.55 -57.98,34.48 -23.2,7.94 -47.2,11.9 -72.03,11.9z"/>
  <path id="3" class="fil0" d="M4933.66 2065.71c-27.68,0 -51.38,-4.98 -71.11,-14.95 -19.74,-9.97 -34.9,-24.42 -45.47,-43.34 -10.58,-18.92 -15.88,-41.81 -15.88,-68.67 0,-40.69 6.92,-76.19 20.76,-106.51 13.83,-30.31 33.66,-54.01 59.51,-71.11 25.84,-17.09 56.66,-25.64 92.47,-25.64 27.67,0 52.19,5.5 73.55,16.49 21.36,10.98 38.25,26.95 50.65,47.91 12.41,20.96 18.61,45.88 18.61,74.77 0,27.67 -4.58,53.1 -13.73,76.3 -9.15,23.19 -21.97,43.34 -38.45,60.42 -16.48,17.09 -35.9,30.42 -58.29,39.98 -22.38,9.56 -46.59,14.34 -72.63,14.34zm-209.97 114.75l87.89 -441.9 56.15 0 -17.08 83.62 -18.92 75.07 -8.55 76.91 -40.9 206.3 -58.59 0zm207.53 -166.02c24.41,0 46.08,-5.9 65,-17.7 18.92,-11.8 33.88,-27.97 44.86,-48.52 10.99,-20.55 16.48,-44.05 16.48,-70.49 0,-28.48 -8.34,-50.77 -25.02,-66.84 -16.68,-16.07 -40.49,-24.11 -71.41,-24.11 -24.01,0 -45.68,5.79 -65.01,17.4 -19.32,11.6 -34.38,27.67 -45.17,48.21 -10.78,20.55 -16.17,44.26 -16.17,71.11 0,28.08 8.35,50.25 25.03,66.53 16.68,16.27 40.49,24.42 71.41,24.42z"/>
  <path id="4" class="fil0" d="M5305.98 2065.71c-27.26,0 -51.68,-5.59 -73.24,-16.78 -21.57,-11.2 -38.56,-27.17 -50.97,-47.92 -12.4,-20.76 -18.61,-45.78 -18.61,-75.08 0,-27.67 4.58,-53.1 13.73,-76.3 9.16,-23.19 21.98,-43.33 38.45,-60.42 16.48,-17.09 35.91,-30.31 58.29,-39.67 22.37,-9.36 46.59,-14.05 72.63,-14.05 28.08,0 51.88,4.88 71.41,14.65 19.53,9.77 34.59,24.11 45.17,43.03 10.58,18.92 15.87,42.02 15.87,69.28 0,39.88 -6.92,75.17 -20.75,105.89 -13.83,30.73 -33.67,54.63 -59.51,71.72 -25.84,17.09 -56.66,25.63 -92.47,25.63zm12.82 -51.27c24.41,0 46.18,-5.9 65.3,-17.7 19.13,-11.8 34.08,-27.97 44.86,-48.52 10.79,-20.55 16.17,-44.05 16.17,-70.49 0,-28.48 -8.34,-50.77 -25.02,-66.84 -16.68,-16.07 -40.49,-24.11 -71.41,-24.11 -24.01,0 -45.58,5.79 -64.7,17.4 -19.13,11.6 -34.17,27.67 -45.17,48.21 -10.98,20.55 -16.48,44.26 -16.48,71.11 0,28.08 8.35,50.25 25.03,66.53 16.68,16.27 40.49,24.42 71.41,24.42zm93.38 47.61l17.09 -83.62 19.53 -75.07 7.94 -76.91 17.08 -87.89 58.6 0 -64.09 323.49 -56.16 0z"/>
  <path id="5" class="fil0" d="M5681.96 2065.71c-27.26,0 -53,-3.56 -77.21,-10.68 -24.21,-7.12 -42.83,-15.97 -55.85,-26.55l26.25 -46.38c12.62,9.77 28.99,17.7 49.13,23.8 20.15,6.1 41.2,9.15 63.18,9.15 28.08,0 49.23,-4.27 63.48,-12.82 14.24,-8.54 21.36,-20.14 21.36,-34.79 0,-10.58 -4.27,-18.61 -12.82,-24.11 -8.54,-5.5 -19.63,-9.77 -33.26,-12.82 -13.63,-3.05 -28.18,-6.1 -43.64,-9.15 -15.47,-3.05 -29.91,-7.43 -43.34,-13.12 -13.42,-5.7 -24.52,-13.94 -33.26,-24.72 -8.75,-10.78 -13.12,-25.12 -13.12,-43.03 0,-21.57 6.1,-40.18 18.31,-55.84 12.21,-15.67 29.3,-27.77 51.27,-36.32 21.98,-8.54 47.61,-12.82 76.91,-12.82 21.16,0 42.01,2.54 62.57,7.63 20.55,5.09 37.33,12.31 50.35,21.67l-23.19 46.39c-13.42,-9.36 -28.48,-15.98 -45.17,-19.84 -16.68,-3.86 -33.37,-5.8 -50.05,-5.8 -27.26,0 -47.81,4.58 -61.65,13.74 -13.83,9.15 -20.75,20.65 -20.75,34.48 0,10.58 4.27,18.82 12.82,24.72 8.54,5.9 19.63,10.47 33.26,13.73 13.63,3.26 28.08,6.41 43.33,9.46 15.26,3.05 29.71,7.33 43.34,12.82 13.63,5.49 24.72,13.42 33.26,23.8 8.54,10.37 12.82,24.51 12.82,42.42 0,22.37 -6.21,41.4 -18.62,57.07 -12.4,15.66 -29.8,27.56 -52.19,35.71 -22.37,8.13 -48.21,12.2 -77.51,12.2z"/>
  <path id="6" class="fil0" d="M5987.75 2065.71c-27.26,0 -53,-3.56 -77.21,-10.68 -24.21,-7.12 -42.83,-15.97 -55.85,-26.55l26.25 -46.38c12.62,9.77 28.99,17.7 49.13,23.8 20.15,6.1 41.2,9.15 63.18,9.15 28.08,0 49.23,-4.27 63.48,-12.82 14.24,-8.54 21.36,-20.14 21.36,-34.79 0,-10.58 -4.27,-18.61 -12.82,-24.11 -8.54,-5.5 -19.63,-9.77 -33.26,-12.82 -13.63,-3.05 -28.18,-6.1 -43.64,-9.15 -15.47,-3.05 -29.91,-7.43 -43.34,-13.12 -13.42,-5.7 -24.52,-13.94 -33.26,-24.72 -8.75,-10.78 -13.12,-25.12 -13.12,-43.03 0,-21.57 6.1,-40.18 18.31,-55.84 12.21,-15.67 29.3,-27.77 51.27,-36.32 21.98,-8.54 47.61,-12.82 76.91,-12.82 21.16,0 42.01,2.54 62.57,7.63 20.55,5.09 37.33,12.31 50.35,21.67l-23.19 46.39c-13.42,-9.36 -28.48,-15.98 -45.17,-19.84 -16.68,-3.86 -33.37,-5.8 -50.05,-5.8 -27.26,0 -47.81,4.58 -61.65,13.74 -13.83,9.15 -20.75,20.65 -20.75,34.48 0,10.58 4.27,18.82 12.82,24.72 8.54,5.9 19.63,10.47 33.26,13.73 13.63,3.26 28.08,6.41 43.33,9.46 15.26,3.05 29.71,7.33 43.34,12.82 13.63,5.49 24.72,13.42 33.26,23.8 8.54,10.37 12.82,24.51 12.82,42.42 0,22.37 -6.21,41.4 -18.62,57.07 -12.4,15.66 -29.8,27.56 -52.19,35.71 -22.37,8.13 -48.21,12.2 -77.51,12.2z"/>
  <polygon id="7" class="fil0" points="6257.54,2062.05 6195.89,1738.55 6248.99,1738.55 6303.31,2031.53 6275.85,2031.53 6443.09,1738.55 6493.13,1738.55 6548.68,2031.53 6521.22,2031.53 6686.62,1738.55 6742.17,1738.55 6560.89,2062.05 6503.51,2062.05 6449.19,1794.71 6466.89,1794.71 6313.69,2062.05 "/>
  <path id="8" class="fil0" d="M6877.66 2065.71c-30.93,0 -57.67,-5.79 -80.26,-17.39 -22.58,-11.6 -40.18,-27.87 -52.8,-48.83 -12.61,-20.95 -18.92,-45.47 -18.92,-73.55 0,-36.62 8.14,-69.28 24.42,-97.96 16.27,-28.69 38.76,-51.28 67.45,-67.76 28.68,-16.48 61.34,-24.72 97.96,-24.72 30.52,0 57.17,5.7 79.96,17.09 22.78,11.4 40.39,27.47 52.79,48.22 12.41,20.75 18.62,45.37 18.62,73.85 0,36.62 -8.14,69.28 -24.42,97.97 -16.27,28.69 -38.56,51.37 -66.84,68.05 -28.28,16.68 -60.93,25.02 -97.97,25.02zm3.67 -51.27c24.41,0 46.18,-5.9 65.3,-17.7 19.13,-11.8 34.08,-27.97 44.86,-48.52 10.79,-20.55 16.17,-44.05 16.17,-70.49 0,-28.48 -8.34,-50.77 -25.02,-66.84 -16.68,-16.07 -40.49,-24.11 -71.41,-24.11 -24.01,0 -45.58,5.79 -64.7,17.4 -19.13,11.6 -34.17,27.67 -45.17,48.21 -10.98,20.55 -16.48,44.26 -16.48,71.11 0,28.08 8.35,50.25 25.03,66.53 16.68,16.27 40.49,24.42 71.41,24.42z"/>
  <path id="9" class="fil0" d="M7113.88 2062.05l64.09 -323.49 56.15 0 -18.31 94 -6.1 -23.2c15.05,-27.26 34.17,-46.38 57.37,-57.37 23.2,-10.99 51.89,-16.49 86.06,-16.49l-10.98 56.77c-2.44,-0.41 -4.88,-0.61 -7.33,-0.61 -2.44,0 -5.09,0 -7.94,0 -32.14,0 -58.69,8.75 -79.65,26.25 -20.95,17.49 -35.09,44.96 -42.42,82.4l-32.35 161.75 -58.59 0z"/>
  <path id="10" class="fil0" d="M7499.02 2065.71c-27.26,0 -51.68,-5.59 -73.24,-16.78 -21.57,-11.2 -38.56,-27.17 -50.97,-47.92 -12.4,-20.76 -18.61,-45.78 -18.61,-75.08 0,-27.67 4.58,-53.1 13.73,-76.3 9.16,-23.19 21.98,-43.33 38.45,-60.42 16.48,-17.09 35.91,-30.31 58.29,-39.67 22.37,-9.36 46.59,-14.05 72.63,-14.05 28.08,0 51.88,4.88 71.41,14.65 19.53,9.77 34.59,24.11 45.17,43.03 10.58,18.92 15.87,42.02 15.87,69.28 0,30.11 -3.86,57.58 -11.6,82.4 -7.72,24.83 -19.23,46.29 -34.48,64.39 -15.26,18.11 -33.47,32.05 -54.63,41.82 -21.16,9.77 -45.17,14.64 -72.03,14.64zm12.82 -51.27c24.41,0 46.18,-5.9 65.3,-17.7 19.13,-11.8 34.08,-27.97 44.86,-48.52 10.79,-20.55 16.17,-44.05 16.17,-70.49 0,-28.48 -8.34,-50.77 -25.02,-66.84 -16.68,-16.07 -40.49,-24.11 -71.41,-24.11 -24.01,0 -45.58,5.79 -64.7,17.4 -19.13,11.6 -34.17,27.67 -45.17,48.21 -10.98,20.55 -16.48,44.26 -16.48,71.11 0,28.08 8.35,50.25 25.03,66.53 16.68,16.27 40.49,24.42 71.41,24.42zm93.38 47.61l17.09 -83.62 18.92 -75.07 8.55 -76.91 43.33 -217.28 58.6 0 -90.33 452.89 -56.16 0z"/>
  <path id="11" class="fil0" d="M7945.2 2062.05l71.41 -354.01c6.51,-32.55 19.83,-57.78 39.98,-75.68 20.14,-17.91 46.69,-26.86 79.65,-26.86 13.43,0 26.14,1.74 38.15,5.19 12,3.46 21.87,8.44 29.61,14.96l-24.42 43.34c-11.39,-10.18 -25.84,-15.26 -43.34,-15.26 -17.49,0 -31.44,4.88 -41.81,14.65 -10.38,9.77 -17.6,24.61 -21.67,44.55l-9.15 42.11 -3.05 24.42 -56.76 282.6 -58.59 0zm0 -275.27l9.15 -48.22 206.91 0 -9.77 48.22 -206.3 0z"/>
  <path id="12" class="fil0" d="M8299.2 2065.71c-30.93,0 -57.67,-5.79 -80.26,-17.39 -22.58,-11.6 -40.18,-27.87 -52.8,-48.83 -12.61,-20.95 -18.92,-45.47 -18.92,-73.55 0,-36.62 8.14,-69.28 24.42,-97.96 16.27,-28.69 38.76,-51.28 67.45,-67.76 28.68,-16.48 61.34,-24.72 97.96,-24.72 30.52,0 57.17,5.7 79.96,17.09 22.78,11.4 40.39,27.47 52.79,48.22 12.41,20.75 18.62,45.37 18.62,73.85 0,36.62 -8.14,69.28 -24.42,97.97 -16.27,28.69 -38.56,51.37 -66.84,68.05 -28.28,16.68 -60.93,25.02 -97.97,25.02zm3.67 -51.27c24.41,0 46.18,-5.9 65.3,-17.7 19.13,-11.8 34.08,-27.97 44.86,-48.52 10.79,-20.55 16.17,-44.05 16.17,-70.49 0,-28.48 -8.34,-50.77 -25.02,-66.84 -16.68,-16.07 -40.49,-24.11 -71.41,-24.11 -24.01,0 -45.58,5.79 -64.7,17.4 -19.13,11.6 -34.17,27.67 -45.17,48.21 -10.98,20.55 -16.48,44.26 -16.48,71.11 0,28.08 8.35,50.25 25.03,66.53 16.68,16.27 40.49,24.42 71.41,24.42z"/>
  <path id="13" class="fil0" d="M8535.42 2062.05l64.09 -323.49 56.15 0 -18.31 94 -6.1 -23.2c15.05,-27.26 34.17,-46.38 57.37,-57.37 23.2,-10.99 51.89,-16.49 86.06,-16.49l-10.98 56.77c-2.44,-0.41 -4.88,-0.61 -7.33,-0.61 -2.44,0 -5.09,0 -7.94,0 -32.14,0 -58.69,8.75 -79.65,26.25 -20.95,17.49 -35.09,44.96 -42.42,82.4l-32.35 161.75 -58.59 0z"/>
  <path id="14" class="fil0" d="M8944.97 2184.12c-15.46,0 -30.72,-2.54 -45.78,-7.63 -15.05,-5.09 -26.85,-12.11 -35.4,-21.06l30.52 -43.34c6.92,6.92 14.96,12.31 24.11,16.17 9.15,3.86 19.43,5.8 30.82,5.8 13.43,0 25.53,-3.57 36.32,-10.69 10.78,-7.12 21.87,-19.64 33.26,-37.54l30.52 -47 6.71 -6.71 184.94 -293.59 59.2 0 -229.49 358.89c-14.24,21.98 -27.67,39.27 -40.28,51.88 -12.62,12.62 -25.74,21.57 -39.36,26.86 -13.64,5.29 -28.99,7.94 -46.09,7.94zm93.39 -111.7l-81.18 -333.87 58.59 0 68.97 288.09 -46.38 45.78z"/>
  <path id="15" class="fil0" d="M9433.26 2065.71c-30.93,0 -57.67,-5.79 -80.26,-17.39 -22.58,-11.6 -40.18,-27.87 -52.8,-48.83 -12.61,-20.95 -18.92,-45.47 -18.92,-73.55 0,-36.62 8.14,-69.28 24.42,-97.96 16.27,-28.69 38.76,-51.28 67.45,-67.76 28.68,-16.48 61.34,-24.72 97.96,-24.72 30.52,0 57.17,5.7 79.96,17.09 22.78,11.4 40.39,27.47 52.79,48.22 12.41,20.75 18.62,45.37 18.62,73.85 0,36.62 -8.14,69.28 -24.42,97.97 -16.27,28.69 -38.56,51.37 -66.84,68.05 -28.28,16.68 -60.93,25.02 -97.97,25.02zm3.67 -51.27c24.41,0 46.18,-5.9 65.3,-17.7 19.13,-11.8 34.08,-27.97 44.86,-48.52 10.79,-20.55 16.17,-44.05 16.17,-70.49 0,-28.48 -8.34,-50.77 -25.02,-66.84 -16.68,-16.07 -40.49,-24.11 -71.41,-24.11 -24.01,0 -45.58,5.79 -64.7,17.4 -19.13,11.6 -34.17,27.67 -45.17,48.21 -10.98,20.55 -16.48,44.26 -16.48,71.11 0,28.08 8.35,50.25 25.03,66.53 16.68,16.27 40.49,24.42 71.41,24.42z"/>
  <path id="16" class="fil0" d="M9806.8 2065.71c-27.67,0 -50.96,-5.69 -69.88,-17.08 -18.92,-11.4 -32.25,-27.98 -39.99,-49.74 -7.72,-21.77 -8.54,-48.12 -2.44,-79.04l36.01 -181.28 58.6 0 -36.01 181.89c-5.7,28.88 -2.75,51.57 8.85,68.05 11.6,16.48 32.24,24.72 61.95,24.72 30.52,0 56.15,-8.55 76.91,-25.64 20.75,-17.08 34.58,-42.93 41.5,-77.51l34.18 -171.51 58.59 0 -64.09 323.49 -56.15 0 18.31 -92.78 10.38 25.03c-15.06,24.41 -34.49,42.42 -58.29,54.01 -23.8,11.6 -49.95,17.39 -78.43,17.39z"/>
  <path id="17" class="fil0" d="M10082.69 2062.05l64.09 -323.49 56.15 0 -18.31 94 -6.1 -23.2c15.05,-27.26 34.17,-46.38 57.37,-57.37 23.2,-10.99 51.89,-16.49 86.06,-16.49l-10.98 56.77c-2.44,-0.41 -4.88,-0.61 -7.33,-0.61 -2.44,0 -5.09,0 -7.94,0 -32.14,0 -58.69,8.75 -79.65,26.25 -20.95,17.49 -35.09,44.96 -42.42,82.4l-32.35 161.75 -58.59 0z"/>
  <path id="18" class="fil0" d="M4830.51 2743.94c-27.68,0 -51.38,-4.98 -71.11,-14.95 -19.74,-9.97 -34.9,-24.42 -45.47,-43.34 -10.58,-18.92 -15.88,-41.81 -15.88,-68.67 0,-40.69 6.92,-76.19 20.76,-106.51 13.83,-30.31 33.66,-54.01 59.51,-71.11 25.84,-17.09 56.66,-25.64 92.47,-25.64 27.67,0 52.19,5.5 73.55,16.49 21.36,10.98 38.25,26.95 50.65,47.91 12.41,20.96 18.61,45.88 18.61,74.77 0,27.67 -4.58,53.1 -13.73,76.3 -9.15,23.19 -21.97,43.34 -38.45,60.42 -16.48,17.09 -35.9,30.42 -58.29,39.98 -22.38,9.56 -46.59,14.34 -72.63,14.34zm-209.97 114.75l87.89 -441.9 56.15 0 -17.08 83.62 -18.92 75.07 -8.55 76.91 -40.9 206.3 -58.59 0zm207.53 -166.02c24.41,0 46.08,-5.9 65,-17.7 18.92,-11.8 33.88,-27.97 44.86,-48.52 10.99,-20.55 16.48,-44.05 16.48,-70.49 0,-28.48 -8.34,-50.77 -25.02,-66.84 -16.68,-16.07 -40.49,-24.11 -71.41,-24.11 -24.01,0 -45.68,5.79 -65.01,17.4 -19.32,11.6 -34.38,27.67 -45.17,48.21 -10.78,20.55 -16.17,44.26 -16.17,71.11 0,28.08 8.35,50.25 25.03,66.53 16.68,16.27 40.49,24.42 71.41,24.42z"/>
  <path id="19" class="fil0" d="M5202.83 2743.94c-27.26,0 -51.68,-5.59 -73.24,-16.78 -21.57,-11.2 -38.56,-27.17 -50.97,-47.92 -12.4,-20.76 -18.61,-45.78 -18.61,-75.08 0,-27.67 4.58,-53.1 13.73,-76.3 9.16,-23.19 21.98,-43.33 38.45,-60.42 16.48,-17.09 35.91,-30.31 58.29,-39.67 22.37,-9.36 46.59,-14.05 72.63,-14.05 28.08,0 51.88,4.88 71.41,14.65 19.53,9.77 34.59,24.11 45.17,43.03 10.58,18.92 15.87,42.02 15.87,69.28 0,39.88 -6.92,75.17 -20.75,105.89 -13.83,30.73 -33.67,54.63 -59.51,71.72 -25.84,17.09 -56.66,25.63 -92.47,25.63zm12.82 -51.27c24.41,0 46.18,-5.9 65.3,-17.7 19.13,-11.8 34.08,-27.97 44.86,-48.52 10.79,-20.55 16.17,-44.05 16.17,-70.49 0,-28.48 -8.34,-50.77 -25.02,-66.84 -16.68,-16.07 -40.49,-24.11 -71.41,-24.11 -24.01,0 -45.58,5.79 -64.7,17.4 -19.13,11.6 -34.17,27.67 -45.17,48.21 -10.98,20.55 -16.48,44.26 -16.48,71.11 0,28.08 8.35,50.25 25.03,66.53 16.68,16.27 40.49,24.42 71.41,24.42zm93.38 47.61l17.09 -83.62 19.53 -75.07 7.94 -76.91 17.08 -87.89 58.6 0 -64.09 323.49 -56.16 0z"/>
  <path id="20" class="fil0" d="M5578.82 2743.94c-27.26,0 -53,-3.56 -77.21,-10.68 -24.21,-7.12 -42.83,-15.97 -55.85,-26.55l26.25 -46.38c12.62,9.77 28.99,17.7 49.13,23.8 20.15,6.1 41.2,9.15 63.18,9.15 28.08,0 49.23,-4.27 63.48,-12.82 14.24,-8.54 21.36,-20.14 21.36,-34.79 0,-10.58 -4.27,-18.61 -12.82,-24.11 -8.54,-5.5 -19.63,-9.77 -33.26,-12.82 -13.63,-3.05 -28.18,-6.1 -43.64,-9.15 -15.47,-3.05 -29.91,-7.43 -43.34,-13.12 -13.42,-5.7 -24.52,-13.94 -33.26,-24.72 -8.75,-10.78 -13.12,-25.12 -13.12,-43.03 0,-21.57 6.1,-40.18 18.31,-55.84 12.21,-15.67 29.3,-27.77 51.27,-36.32 21.98,-8.54 47.61,-12.82 76.91,-12.82 21.16,0 42.01,2.54 62.57,7.63 20.55,5.09 37.33,12.31 50.35,21.67l-23.19 46.39c-13.42,-9.36 -28.48,-15.98 -45.17,-19.84 -16.68,-3.86 -33.37,-5.8 -50.05,-5.8 -27.26,0 -47.81,4.58 -61.65,13.74 -13.83,9.15 -20.75,20.65 -20.75,34.48 0,10.58 4.27,18.82 12.82,24.72 8.54,5.9 19.63,10.47 33.26,13.73 13.63,3.26 28.08,6.41 43.33,9.46 15.26,3.05 29.71,7.33 43.34,12.82 13.63,5.49 24.72,13.42 33.26,23.8 8.54,10.37 12.82,24.51 12.82,42.42 0,22.37 -6.21,41.4 -18.62,57.07 -12.4,15.66 -29.8,27.56 -52.19,35.71 -22.37,8.13 -48.21,12.2 -77.51,12.2z"/>
  <path id="21" class="fil0" d="M5884.61 2743.94c-27.26,0 -53,-3.56 -77.21,-10.68 -24.21,-7.12 -42.83,-15.97 -55.85,-26.55l26.25 -46.38c12.62,9.77 28.99,17.7 49.13,23.8 20.15,6.1 41.2,9.15 63.18,9.15 28.08,0 49.23,-4.27 63.48,-12.82 14.24,-8.54 21.36,-20.14 21.36,-34.79 0,-10.58 -4.27,-18.61 -12.82,-24.11 -8.54,-5.5 -19.63,-9.77 -33.26,-12.82 -13.63,-3.05 -28.18,-6.1 -43.64,-9.15 -15.47,-3.05 -29.91,-7.43 -43.34,-13.12 -13.42,-5.7 -24.52,-13.94 -33.26,-24.72 -8.75,-10.78 -13.12,-25.12 -13.12,-43.03 0,-21.57 6.1,-40.18 18.31,-55.84 12.21,-15.67 29.3,-27.77 51.27,-36.32 21.98,-8.54 47.61,-12.82 76.91,-12.82 21.16,0 42.01,2.54 62.57,7.63 20.55,5.09 37.33,12.31 50.35,21.67l-23.19 46.39c-13.42,-9.36 -28.48,-15.98 -45.17,-19.84 -16.68,-3.86 -33.37,-5.8 -50.05,-5.8 -27.26,0 -47.81,4.58 -61.65,13.74 -13.83,9.15 -20.75,20.65 -20.75,34.48 0,10.58 4.27,18.82 12.82,24.72 8.54,5.9 19.63,10.47 33.26,13.73 13.63,3.26 28.08,6.41 43.33,9.46 15.26,3.05 29.71,7.33 43.34,12.82 13.63,5.49 24.72,13.42 33.26,23.8 8.54,10.37 12.82,24.51 12.82,42.42 0,22.37 -6.21,41.4 -18.62,57.07 -12.4,15.66 -29.8,27.56 -52.19,35.71 -22.37,8.13 -48.21,12.2 -77.51,12.2z"/>
  <polygon id="22" class="fil0" points="6154.39,2740.28 6092.75,2416.78 6145.84,2416.78 6200.16,2709.76 6172.7,2709.76 6339.95,2416.78 6389.99,2416.78 6445.53,2709.76 6418.07,2709.76 6583.48,2416.78 6639.02,2416.78 6457.74,2740.28 6400.37,2740.28 6346.05,2472.94 6363.74,2472.94 6210.54,2740.28 "/>
  <path id="23" class="fil0" d="M6774.51 2743.94c-30.93,0 -57.67,-5.79 -80.26,-17.39 -22.58,-11.6 -40.18,-27.87 -52.8,-48.83 -12.61,-20.95 -18.92,-45.47 -18.92,-73.55 0,-36.62 8.14,-69.28 24.42,-97.96 16.27,-28.69 38.76,-51.28 67.45,-67.76 28.68,-16.48 61.34,-24.72 97.96,-24.72 30.52,0 57.17,5.7 79.96,17.09 22.78,11.4 40.39,27.47 52.79,48.22 12.41,20.75 18.62,45.37 18.62,73.85 0,36.62 -8.14,69.28 -24.42,97.97 -16.27,28.69 -38.56,51.37 -66.84,68.05 -28.28,16.68 -60.93,25.02 -97.97,25.02zm3.67 -51.27c24.41,0 46.18,-5.9 65.3,-17.7 19.13,-11.8 34.08,-27.97 44.86,-48.52 10.79,-20.55 16.17,-44.05 16.17,-70.49 0,-28.48 -8.34,-50.77 -25.02,-66.84 -16.68,-16.07 -40.49,-24.11 -71.41,-24.11 -24.01,0 -45.58,5.79 -64.7,17.4 -19.13,11.6 -34.17,27.67 -45.17,48.21 -10.98,20.55 -16.48,44.26 -16.48,71.11 0,28.08 8.35,50.25 25.03,66.53 16.68,16.27 40.49,24.42 71.41,24.42z"/>
  <path id="24" class="fil0" d="M7010.73 2740.28l64.09 -323.49 56.15 0 -18.31 94 -6.1 -23.2c15.05,-27.26 34.17,-46.38 57.37,-57.37 23.2,-10.99 51.89,-16.49 86.06,-16.49l-10.98 56.77c-2.44,-0.41 -4.88,-0.61 -7.33,-0.61 -2.44,0 -5.09,0 -7.94,0 -32.14,0 -58.69,8.75 -79.65,26.25 -20.95,17.49 -35.09,44.96 -42.42,82.4l-32.35 161.75 -58.59 0z"/>
  <path id="25" class="fil0" d="M7395.87 2743.94c-27.26,0 -51.68,-5.59 -73.24,-16.78 -21.57,-11.2 -38.56,-27.17 -50.97,-47.92 -12.4,-20.76 -18.61,-45.78 -18.61,-75.08 0,-27.67 4.58,-53.1 13.73,-76.3 9.16,-23.19 21.98,-43.33 38.45,-60.42 16.48,-17.09 35.91,-30.31 58.29,-39.67 22.37,-9.36 46.59,-14.05 72.63,-14.05 28.08,0 51.88,4.88 71.41,14.65 19.53,9.77 34.59,24.11 45.17,43.03 10.58,18.92 15.87,42.02 15.87,69.28 0,30.11 -3.86,57.58 -11.6,82.4 -7.72,24.83 -19.23,46.29 -34.48,64.39 -15.26,18.11 -33.47,32.05 -54.63,41.82 -21.16,9.77 -45.17,14.64 -72.03,14.64zm12.82 -51.27c24.41,0 46.18,-5.9 65.3,-17.7 19.13,-11.8 34.08,-27.97 44.86,-48.52 10.79,-20.55 16.17,-44.05 16.17,-70.49 0,-28.48 -8.34,-50.77 -25.02,-66.84 -16.68,-16.07 -40.49,-24.11 -71.41,-24.11 -24.01,0 -45.58,5.79 -64.7,17.4 -19.13,11.6 -34.17,27.67 -45.17,48.21 -10.98,20.55 -16.48,44.26 -16.48,71.11 0,28.08 8.35,50.25 25.03,66.53 16.68,16.27 40.49,24.42 71.41,24.42zm93.38 47.61l17.09 -83.62 18.92 -75.07 8.55 -76.91 43.33 -217.28 58.6 0 -90.33 452.89 -56.16 0z"/>
  <path id="26" class="fil0" d="M7771.86 2743.94c-27.26,0 -53,-3.56 -77.21,-10.68 -24.21,-7.12 -42.83,-15.97 -55.85,-26.55l26.25 -46.38c12.62,9.77 28.99,17.7 49.13,23.8 20.15,6.1 41.2,9.15 63.18,9.15 28.08,0 49.23,-4.27 63.48,-12.82 14.24,-8.54 21.36,-20.14 21.36,-34.79 0,-10.58 -4.27,-18.61 -12.82,-24.11 -8.54,-5.5 -19.63,-9.77 -33.26,-12.82 -13.63,-3.05 -28.18,-6.1 -43.64,-9.15 -15.47,-3.05 -29.91,-7.43 -43.34,-13.12 -13.42,-5.7 -24.52,-13.94 -33.26,-24.72 -8.75,-10.78 -13.12,-25.12 -13.12,-43.03 0,-21.57 6.1,-40.18 18.31,-55.84 12.21,-15.67 29.3,-27.77 51.27,-36.32 21.98,-8.54 47.61,-12.82 76.91,-12.82 21.16,0 42.01,2.54 62.57,7.63 20.55,5.09 37.33,12.31 50.35,21.67l-23.19 46.39c-13.42,-9.36 -28.48,-15.98 -45.17,-19.84 -16.68,-3.86 -33.37,-5.8 -50.05,-5.8 -27.26,0 -47.81,4.58 -61.65,13.74 -13.83,9.15 -20.75,20.65 -20.75,34.48 0,10.58 4.27,18.82 12.82,24.72 8.54,5.9 19.63,10.47 33.26,13.73 13.63,3.26 28.08,6.41 43.33,9.46 15.26,3.05 29.71,7.33 43.34,12.82 13.63,5.49 24.72,13.42 33.26,23.8 8.54,10.37 12.82,24.51 12.82,42.42 0,22.37 -6.21,41.4 -18.62,57.07 -12.4,15.66 -29.8,27.56 -52.19,35.71 -22.37,8.13 -48.21,12.2 -77.51,12.2z"/>
  <g id="_2436303052080">
   <path class="fil1" d="M1061.5 591.37l211.26 118.4 402.32 -224.01c-19.67,-34.08 -55.4,-75.73 -92.09,-96.92l-309.23 -178.52 -309.22 -178.54c-73.37,-42.36 -157.36,-42.36 -230.73,0l-309.22 178.54 -309.23 178.52c-73.37,42.36 -115.36,115.09 -115.36,199.81l0 357.07 0 357.07c0,84.72 41.99,157.45 115.36,199.8l309.23 178.53 309.22 178.54c73.37,42.35 157.36,42.35 230.73,0l309.22 -178.54 309.23 -178.53c73.36,-42.35 115.35,-115.09 115.35,-199.8l0 -357.07 -424.52 236.21 -424.64 236.27 -212.34 -118.11 -212.32 -118.13 0 -236.23 0 -236.22 212.32 -118.13 212.34 -118.11 212.33 118.11z"/>
   <g>
    <g id="cubo">
     <polygon class="fil2" points="849.19,1418.2 849.2,945.73 424.54,709.5 424.54,1181.96 "/>
     <polygon class="fil3" points="849.2,945.73 849.19,1418.18 1270.77,1183.65 1272.76,709.77 1272.77,709.77 "/>
     <polygon class="fil4" points="849.2,945.73 1272.76,709.77 849.19,473.25 424.54,709.5 "/>
    </g>
    <g>
     <path class="fil1" d="M1061.52 591.37l211.25 118.4 402.32 -224.01c-19.67,-34.08 -55.4,-75.73 -92.09,-96.92l-309.23 -178.52 -309.22 -178.54c-73.37,-42.36 -157.36,-42.36 -230.72,0l-309.22 178.54 -309.22 178.52c-73.37,42.36 -115.36,115.09 -115.36,199.81l0 357.07 0 357.07c0,84.72 41.99,157.45 115.36,199.8l309.22 178.53 309.22 178.54c73.36,42.35 157.35,42.35 230.72,0l309.22 -178.54 309.23 -178.53c73.37,-42.35 115.36,-115.09 115.36,-199.8l0 -357.07 -424.52 236.21 -424.65 236.27 -212.33 -118.11 -212.32 -118.13 0 -236.23 0 -236.22 212.32 -118.13 212.33 -118.11 212.34 118.11z"/>
     <path class="fil5" d="M849.2 1891.44l0 -473.26 -0.01 0.01 0 -0.02 -212.33 -118.1 -212.32 -118.12 0 -236.23 0 -236.22 0.31 -0.18 -401.54 -223.56c-15.23,30.97 -23.29,65.78 -23.29,102.9l0 357.07 0 357.07 0.04 3.96 0.08 3.95 0.16 3.94 0.21 3.9 0.28 3.89 0.33 3.87 0.39 3.84 0.45 3.83 0.52 3.81 0.57 3.79 0.63 3.77 0.7 3.74 0.75 3.71 0.8 3.7 0.87 3.68 0.93 3.65 0.98 3.62 1.04 3.6 1.09 3.57 1.16 3.55 1.21 3.53 1.26 3.5 1.33 3.47 1.37 3.44 1.44 3.43 1.49 3.38 1.55 3.35 1.6 3.33 1.66 3.31 1.7 3.27 1.76 3.24 1.82 3.2 1.87 3.18 1.93 3.15 1.98 3.11 2.03 3.08 2.08 3.05 2.14 3.02 2.19 2.99 2.24 2.95 2.29 2.91 2.34 2.89 2.4 2.84 2.45 2.81 2.5 2.78 2.54 2.73 2.6 2.7 2.65 2.66 2.7 2.62 2.75 2.59 2.79 2.55 2.84 2.51 2.9 2.47 2.94 2.43 3 2.39 3.04 2.35 3.08 2.31 3.14 2.26 3.18 2.23 3.23 2.18 3.28 2.14 3.31 2.09 3.38 2.05 3.41 2.01 309.23 178.53 309.22 178.54 3.44 1.95 3.47 1.89 3.47 1.83 3.49 1.77 3.51 1.71 3.52 1.63 3.52 1.59 3.55 1.52 3.56 1.46 3.57 1.39 3.57 1.34 3.58 1.27 3.59 1.21 3.61 1.15 3.61 1.09 3.62 1.02 3.63 0.97 3.64 0.9 3.65 0.84 3.64 0.77 3.66 0.72 3.67 0.65 3.66 0.58 3.68 0.53 3.68 0.46 3.68 0.4 3.69 0.35 3.68 0.27 3.69 0.22 3.69 0.16 3.69 0.08 3.69 0.04z"/>
     <polygon class="fil6" points="849.2,1418.19 849.2,1891.44 852.88,1891.41 856.58,1891.32 860.26,1891.17 863.94,1890.94 867.62,1890.67 871.31,1890.32 874.99,1889.92 878.66,1889.46 882.33,1888.93 886,1888.34 889.66,1887.69 893.31,1886.97 896.96,1886.2 900.61,1885.36 904.25,1884.46 907.88,1883.5 911.5,1882.48 915.11,1881.39 918.71,1880.24 922.31,1879.03 925.89,1877.76 929.48,1876.42 933.04,1875.03 936.6,1873.57 940.13,1872.05 943.66,1870.46 947.18,1868.83 950.68,1867.12 954.18,1865.35 957.65,1863.52 961.12,1861.62 964.56,1859.67 1273.77,1681.13 1583.01,1502.6 1586.43,1500.59 1589.8,1498.54 1593.11,1496.45 1596.4,1494.31 1599.63,1492.13 1602.81,1489.9 1605.94,1487.64 1609.03,1485.33 1612.07,1482.98 1615.07,1480.6 1618,1478.16 1620.91,1475.69 1623.75,1473.19 1626.54,1470.63 1629.29,1468.04 1631.99,1465.43 1634.63,1462.76 1637.23,1460.06 1639.78,1457.33 1642.28,1454.55 1644.72,1451.74 1647.12,1448.9 1649.46,1446.01 1651.75,1443.11 1653.99,1440.15 1656.19,1437.17 1658.32,1434.15 1660.4,1431.1 1662.43,1428.02 1664.41,1424.91 1666.33,1421.76 1668.21,1418.58 1670.03,1415.38 1671.78,1412.14 1673.49,1408.87 1675.14,1405.56 1676.75,1402.23 1678.3,1398.88 1679.79,1395.5 1681.22,1392.07 1682.59,1388.64 1683.92,1385.17 1685.18,1381.67 1686.4,1378.14 1687.55,1374.59 1688.64,1371.03 1689.68,1367.42 1690.67,1363.8 1691.6,1360.15 1692.46,1356.48 1693.26,1352.78 1694.02,1349.07 1694.71,1345.33 1695.35,1341.56 1695.91,1337.77 1696.43,1333.96 1696.89,1330.14 1697.28,1326.29 1697.61,1322.42 1697.89,1318.53 1698.09,1314.63 1698.25,1310.7 1698.34,1306.75 1698.37,1302.8 1698.37,945.72 1273.84,1181.93 "/>
     <path class="fil1" d="M1272.76 709.77l402.33 -224.01c-2.43,-4.93 -5.03,-9.76 -7.82,-14.48l-0.95 -1.59 -0.96 -1.58 -1.95 -3.13 -1.84 -2.85 -1.18 -1.79 -1.04 -1.52 -1.05 -1.53 -1.07 -1.5 -1.07 -1.51 -1.09 -1.49 -1.1 -1.49 -1.74 -2.3 -0.5 -0.65 -1.14 -1.46 -1.15 -1.47 -1.16 -1.43 -1.19 -1.44 -1.19 -1.43 -1.21 -1.42 -0.5 -0.59 -1.93 -2.22 -1.24 -1.38 -1.26 -1.38 -1.26 -1.37 -1.28 -1.36 -2.6 -2.7 -2.12 -2.13 -0.53 -0.54 -1.34 -1.32 -1.36 -1.31 -1.37 -1.29 -1.37 -1.29 -2.27 -2.06 -0.54 -0.48 -1.41 -1.25 -2.4 -2.09 -1.93 -1.63 -1.47 -1.23 -1.48 -1.21 -1.49 -1.2 -1.49 -1.19 -1.51 -1.18 -1.52 -1.18 -1.54 -1.15 -1.55 -1.15 -1.56 -1.14 -0.52 -0.37 -2.12 -1.49 -1.06 -0.74 -2.31 -1.58 -1.98 -1.34 -3.29 -2.14 -1.65 -1.05 -1.67 -1.05 -1.68 -1.02 -1.69 -1.03 -1.7 -1.01 -1.71 -0.99 -309.23 -178.52 -309.22 -178.54 -3.44 -1.95 -3.46 -1.89 -3.47 -1.83 -3.5 -1.77 -3.5 -1.71 -3.52 -1.64 -3.53 -1.59 -3.54 -1.51 -3.56 -1.46 -3.57 -1.39 -3.57 -1.34 -3.59 -1.27 -3.59 -1.22 -3.6 -1.14 -3.61 -1.09 -3.62 -1.02 -3.63 -0.97 -3.64 -0.9 -3.65 -0.84 -3.64 -0.77 -3.67 -0.71 -3.66 -0.65 -3.66 -0.59 -3.68 -0.52 -3.68 -0.46 -3.68 -0.41 -3.69 -0.34 -3.68 -0.28 -3.69 -0.21 -3.69 -0.16 -3.69 -0.09 -3.7 -0.03 -3.69 0.03 -3.69 0.09 -3.69 0.16 -3.69 0.21 -3.68 0.28 -3.69 0.34 -3.68 0.41 -3.68 0.46 -3.68 0.52 -3.66 0.59 -3.66 0.65 -3.67 0.71 -3.64 0.77 -3.65 0.84 -3.64 0.9 -3.63 0.97 -3.62 1.02 -3.61 1.09 -3.6 1.14 -3.59 1.22 -3.59 1.27 -3.57 1.34 -3.57 1.39 -3.56 1.46 -3.54 1.51 -3.53 1.59 -3.52 1.64 -3.5 1.71 -3.5 1.77 -3.47 1.83 -3.46 1.89 -3.44 1.95 -309.22 178.54 -309.23 178.52 -1.71 0.99 -1.71 1.01 -1.68 1.03 -1.69 1.02 -1.66 1.05 -1.66 1.05 -3.28 2.14 -1.99 1.34 -2.31 1.58 -1.05 0.74 -2.12 1.49 -0.52 0.37 -1.57 1.14 -1.54 1.15 -1.54 1.16 -1.52 1.17 -1.51 1.18 -1.5 1.19 -1.49 1.2 -1.48 1.21 -1.47 1.23 -1.93 1.63 -2.39 2.09 -1.42 1.25 -0.53 0.48 -2.27 2.06 -1.37 1.29 -1.37 1.3 -1.36 1.3 -1.35 1.32 -0.52 0.54 -2.13 2.13 -2.59 2.7 -1.28 1.36 -1.27 1.37 -1.25 1.38 -1.24 1.38 -1.93 2.22 -0.51 0.59 -1.2 1.42 -1.21 1.43 -1.17 1.44 -1.17 1.43 -1.14 1.47 -1.15 1.46 -0.49 0.65 -1.75 2.3 -1.1 1.49 -1.1 1.49 -1.06 1.51 -1.08 1.5 -1.04 1.53 -1.04 1.52 -1.18 1.79 -1.85 2.85 -1.94 3.13 -0.97 1.58 -0.94 1.59c-2.79,4.72 -5.39,9.55 -7.81,14.48l401.54 223.56 212.01 -117.95 212.33 -118.12 212.34 118.12 211.24 118.4z"/>
    </g>
   </g>
   <path class="fil7" d="M849.2 1432.83l124.91 0c51.58,0 93.67,42.08 93.67,93.67l0 848.36c0,35.99 -18.83,66.83 -50.83,83.3l-124.9 64.23c-13.88,7.14 -28.36,10.7 -42.85,10.7l0 -1100.26z"/>
   <path class="fil8" d="M724.29 1432.83l124.91 0 0 1100.26c-14.48,0 -28.96,-3.57 -42.84,-10.7l-124.91 -64.23c-32,-16.47 -50.83,-47.31 -50.83,-83.3l0 -848.36c0,-51.59 42.08,-93.67 93.67,-93.67z"/>
  </g>
  <polygon class="fil0" points="2713.01,2101.55 2658.62,2149.17 2415,1876.9 2651.95,1605.14 2706.23,1652.76 2512.11,1876.9 "/>
  <polygon id="1" class="fil0" points="3027.38,1619.84 2781.98,2166.26 2725.82,2138.75 2971.21,1592.95 "/>
  <polygon id="2" class="fil0" points="3332.05,1876.9 3099.48,2146.15 3046.34,2099.16 3237.44,1876.9 3048.21,1656.41 3101.25,1608.79 "/>
 </g>
</svg>
